<?xml version="1.0" standalone="no"?>
<!DOCTYPE svg PUBLIC "-//W3C//DTD SVG 20010904//EN"
 "http://www.w3.org/TR/2001/REC-SVG-20010904/DTD/svg10.dtd">
<svg version="1.0" xmlns="http://www.w3.org/2000/svg"
 width="512.000000pt" height="512.000000pt" viewBox="0 0 512.000000 512.000000"
 preserveAspectRatio="xMidYMid meet">
<metadata>
Created by potrace 1.14, written by Peter Selinger 2001-2017
</metadata>
<g transform="translate(0.000000,512.000000) scale(0.100000,-0.100000)"
fill="#000000" stroke="none">
<path d="M2400 5105 c-105 -21 -115 -24 -189 -54 -78 -32 -200 -105 -244 -147
-19 -17 -67 -39 -132 -60 -333 -107 -632 -278 -880 -505 -95 -88 -121 -114
-196 -199 -146 -167 -257 -334 -354 -535 -74 -154 -112 -256 -159 -426 -32
-119 -38 -144 -52 -236 -3 -21 -7 -45 -9 -53 -18 -69 -25 -421 -12 -555 18
-174 53 -346 104 -502 l26 -81 -98 -194 c-180 -356 -205 -435 -200 -643 4
-165 26 -255 97 -400 217 -441 740 -631 1198 -436 98 42 201 112 283 193 l69
67 86 -30 c290 -102 524 -143 817 -143 213 0 349 15 545 60 102 24 307 87 343
106 15 7 32 -4 93 -61 188 -175 384 -259 624 -266 136 -4 230 11 352 55 254
92 456 294 549 549 42 115 58 222 54 361 -6 230 -94 434 -264 612 l-70 74 31
84 c32 90 74 228 82 270 2 14 9 46 15 72 6 25 13 70 16 100 4 29 8 59 11 67 9
27 18 189 18 316 0 271 -36 491 -120 750 -51 156 -63 174 -116 175 -24 0 -32
9 -68 84 -41 88 -47 106 -30 106 5 0 12 16 16 35 5 28 0 45 -32 97 -21 35 -40
65 -43 68 -4 3 -19 25 -36 50 -57 86 -173 226 -266 319 -274 275 -631 492
-991 601 -56 17 -94 36 -135 70 -102 82 -235 145 -378 180 -75 18 -279 21
-355 5z m-769 -1272 c1 -243 0 -242 20 -300 38 -118 157 -217 274 -231 l45 -5
1 -56 c3 -331 4 -345 26 -386 49 -91 148 -148 242 -138 25 3 53 9 61 13 12 7
21 -3 39 -42 27 -59 59 -91 118 -119 122 -57 270 -3 325 119 19 41 21 43 51
36 121 -29 241 26 289 135 19 41 21 43 51 36 121 -28 240 25 293 132 17 34 19
62 19 248 l0 209 -34 23 c-37 25 -37 26 -32 191 1 12 9 25 19 29 45 16 52 41
52 191 0 78 4 142 8 142 13 0 117 -75 202 -146 190 -158 345 -356 455 -586 61
-127 114 -279 132 -378 2 -14 9 -45 14 -70 19 -86 24 -146 24 -315 0 -177 -9
-288 -26 -333 -6 -15 -10 -28 -10 -29 1 -2 1 -13 1 -26 l0 -24 -66 34 c-113
56 -229 41 -322 -42 l-48 -43 -45 39 c-73 64 -167 85 -251 55 -55 -20 -113
-71 -136 -120 -21 -44 -22 -44 -58 -36 -134 30 -276 -78 -288 -219 -2 -30 3
-68 14 -102 11 -30 16 -55 12 -57 -88 -32 -155 -145 -146 -248 3 -37 1 -41
-29 -52 -83 -30 -146 -119 -152 -213 -5 -84 18 -133 107 -224 43 -45 78 -84
78 -87 0 -3 -19 -9 -42 -13 -24 -4 -50 -9 -58 -11 -104 -22 -393 -30 -498 -14
-31 5 -73 11 -92 13 -85 12 -293 67 -307 81 -4 3 10 41 30 83 47 103 59 174
43 250 -7 33 -43 110 -66 142 -11 16 -20 33 -20 38 0 4 19 28 43 53 23 25 65
72 92 104 28 33 61 71 75 86 14 15 50 56 81 91 161 184 168 194 176 273 19
185 -170 324 -338 248 -51 -22 -68 -37 -134 -112 -167 -191 -263 -300 -277
-315 -11 -11 17 52 46 105 10 19 50 98 89 175 100 201 102 282 12 383 -54 59
-128 88 -206 79 -108 -13 -158 -63 -252 -251 l-68 -137 -34 29 c-85 75 -211
75 -308 0 l-38 -29 -33 28 c-18 15 -40 33 -49 38 -23 14 -32 108 -32 315 0
175 4 219 30 343 81 392 289 744 589 996 80 68 194 150 209 151 4 0 7 -102 8
-227z"/>
</g>
</svg>
